PathFileType	4	(X/Y/Z)	C:/Users/beibeiliu/ov580/test_trc/User3\sequence.18_training_dense_left.trc
DataRate	CameraRate	NumFrames	NumMarkers	Units	OrigDataRate	OrigDataStartFrame	OrigNumFrames
120	120	19	19	mm	120	29	84
Frame#	Time	ThumbCMC			ThumbMCP			ThumbIP			ThumbTip			IndexMCP			IndexPIP			IndexTip			MiddleMCP			MiddlePIP			MiddleTip			RingMCP			RingPIP			RingTip			PinkyMCP			PinkyPIP			PinkyTip			BackHand1			BackHand2			BackHand3	
		X0	Y0	Z0	X1	Y1	Z1	X2	Y2	Z2	X3	Y3	Z3	X4	Y4	Z4	X5	Y5	Z5	X6	Y6	Z6	X7	Y7	Z7	X8	Y8	Z8	X9	Y9	Z9	X10	Y10	Z10	X11	Y11	Z11	X12	Y12	Z12	X13	Y13	Z13	X14	Y14	Z14	X15	Y15	Z15	X16	Y16	Z16	X17	Y17	Z17	X18	Y18	Z18	
28	0.233333	-143.832	-23.187	17.7055	-133.432	-38.8507	-8.72562	-140.541	-54.396	-37.2524	-159.899	-69.2281	-45.3527	-176.097	-1.88128	-48.176	-176.551	-0.590942	-72.8619	-179.276	-0.717995	-102.406	-181.043	-31.7167	-50.3239	-160.504	-59.9269	-50.109	-161.597	-53.3054	-14.4076	-188.71	-52.6908	-40.0141	-166.897	-71.073	-28.2537	-166.01	-57.3111	0.0218967	-200.695	-61.6047	-28.2964	-178.275	-75.87	-15.8024	-178.637	-60.3768	10.3702	-212.237	-23.0505	4.58973	-206.263	-25.1858	41.441	-182.232	-5.42377	21.3118	
29	0.241667	-141.765	-22.1177	15.6287	-132.189	-37.0593	-15.7096	-132.172	-53.3973	-43.8001	-155.47	-70.8054	-52.8942	-173.527	-1.73672	-52.4492	-171.025	1.57612	-79.7786	-170.223	2.20597	-107.793	-180.33	-34.5056	-58.3173	-158.447	-59.0588	-55.7643	-158.093	-47.7573	-16.0657	-185.391	-50.4451	-45.0169	-165.238	-69.7393	-33.7283	-165.657	-57.5279	-3.48672	-195.762	-59.3726	-33.3437	-173.213	-73.5478	-21.0554	-174.704	-56.4664	3.85122	-204.933	-19.4593	1.69338	-202.761	-23.2342	31.6981	-178.369	-2.60386	15.0686	
30	0.25	-142.259	-17.4388	9.22712	-125.301	-32.2365	-20.7623	-130.989	-49.6126	-42.1985	-152.539	-65.8422	-53.0196	-165.59	5.38784	-60.6929	-167.003	3.88139	-82.1843	-167.196	3.79808	-112.58	-175.498	-29.9174	-59.5575	-154.154	-56.9311	-58.1424	-155.017	-48.3455	-21.3197	-180.365	-48.3786	-49.9156	-162.103	-68.1578	-33.7987	-158.962	-49.7019	-7.06502	-190.46	-58.8238	-37.2564	-171.316	-71.1443	-24.1897	-172.078	-52.313	4.56143	-206.826	-16.648	-5.98369	-202.481	-19.3763	28.2178	-177.646	1.32774	9.51627	
31	0.258333	-136.407	-13.11	16.4503	-118.069	-29.4019	-14.3293	-124.551	-44.5848	-37.4632	-143.164	-62.2321	-52.6371	-159.754	7.94561	-56.7984	-154.423	10.3145	-79.4245	-153.234	10.5469	-106.579	-163.932	-26.1929	-59.5797	-145.386	-51.1034	-53.0883	-147.638	-41.2856	-14.6025	-176.579	-43.5557	-44.2948	-157.042	-62.2809	-33.9732	-156.719	-46.9054	-2.48901	-188.517	-53.757	-33.5651	-166.892	-68.1925	-18.1185	-168.801	-52.9572	5.4894	-200.141	-10.5285	-3.1539	-196.537	-13.523	30.8162	-168.065	6.93521	11.5358	
32	0.266667	-135.36	-14.5659	27.9525	-118.465	-29.8062	0.568866	-120.342	-46.331	-27.0697	-143.014	-59.664	-38.5994	-151.699	8.9499	-40.0579	-149.296	9.21007	-68.3922	-148.407	9.53039	-93.8432	-163.557	-24.1362	-45.737	-144.731	-51.6004	-43.9235	-147.104	-40.9997	-5.14771	-172.36	-39.666	-35.1229	-156.945	-62.7289	-22.855	-157.851	-47.3223	7.60764	-186.536	-53.533	-24.0062	-164.896	-63.5153	-9.37728	-170.384	-46.4836	16.5957	-198.782	-8.83043	5.45642	-196.35	-11.9236	40.3418	-170.903	3.32812	24.0194	
33	0.275	-138.059	-10.0738	44.1427	-122.817	-26.8136	13.8466	-127.629	-43.5195	-15.8135	-146.41	-56.2276	-24.2028	-159.217	9.35846	-27.2728	-155.518	11.1026	-53.7936	-151.856	11.5361	-79.5079	-165.391	-21.3838	-33.2438	-149.457	-47.7527	-29.5988	-151.281	-39.3138	8.09604	-175.519	-37.7242	-21.4954	-161.434	-58.1952	-8.11546	-163.602	-40.7646	22.3222	-189.001	-51.7553	-11.8123	-170.032	-58.9175	4.88805	-175.298	-45.4398	31.197	-200.648	-3.09658	19.1808	-202.763	-6.393	49.8285	-175.998	9.70963	36.8989	
34	0.283333	-145.872	1.03046	55.3049	-127.004	-15.8032	26.5135	-131.806	-30.9775	-0.177646	-152.601	-44.566	-13.0009	-164.14	22.4328	-14.8117	-161.672	22.8895	-45.9695	-160.238	23.2914	-65.9237	-170.503	-9.59208	-23.338	-154.323	-36.9511	-16.6692	-158.809	-25.9724	21.5741	-184.071	-26.7409	-10.6489	-162.6	-46.4874	3.47767	-167.928	-30.2582	33.5594	-198.108	-37.3628	0.81361	-174.126	-49.3486	15.4586	-177.994	-32.4464	40.1855	-206.68	6.77259	31.1031	-209.247	2.35595	65.4373	-183.037	19.5122	48.2138	
35	0.291667	-147.62	9.95734	62.0221	-133.035	-4.95238	28.8149	-137.157	-19.9287	5.02427	-156.211	-34.9633	-7.48747	-167.842	34.4951	-10.597	-162.176	36.4905	-40.2906	-162.152	34.8783	-60.6336	-176.986	-1.72663	-18.3524	-155.783	-25.1866	-12.1169	-159.152	-17.5036	26.2027	-187.424	-17.6088	-5.70232	-166.534	-37.7647	8.80025	-169.107	-23.3458	36.7574	-196.909	-30.2859	2.54012	-176.575	-40.3802	20.2252	-182.775	-27.9753	44.6788	-213.101	14.7651	34.6206	-214.86	11.0001	68.8662	-185.525	27.1378	55.5544	
36	0.3	-149.169	12.7578	60.7097	-136.113	-2.43782	28.7844	-138.675	-17.4438	4.33939	-156.054	-34.3005	-13.3259	-172.585	33.4772	-12.1281	-168.692	35.8171	-36.1905	-167.136	34.9182	-61.9348	-178.695	2.96276	-16.9056	-157.452	-21.9481	-15.2651	-163.812	-18.2187	23.9735	-190.291	-13.7804	-4.84782	-170.453	-34.6687	5.00848	-171.259	-17.1037	37.8541	-197.226	-26.2166	3.56859	-178.711	-36.1263	18.6911	-185.45	-22.7448	46.2195	-215.894	14.5049	37.3032	-215.792	14.0083	67.396	-187.333	29.5354	54.4729	
37	0.308333	-150.827	10.8487	55.0779	-135.99	-3.66627	24.298	-137.331	-19.2938	1.5924	-154.263	-35.7225	-16.1419	-171.787	31.0875	-19.903	-167.208	32.9388	-43.6889	-163.071	32.856	-67.7431	-179.98	-0.703846	-18.3111	-159.354	-26.6138	-15.9504	-164.41	-19.9722	21.3068	-190.534	-17.6439	-7.6385	-167.331	-36.2224	6.82969	-174.8	-19.4772	37.4282	-202.757	-27.8397	1.71544	-181.129	-41.015	17.1882	-180.643	-25.0821	40.9711	-211.452	15.4906	35.4223	-217.995	11.1167	64.9774	-183.967	31.2409	49.0872	
38	0.316667	-150.596	9.38362	52.6632	-129.989	-6.33052	23.8049	-132.165	-21.7726	-3.54443	-150.572	-36.8306	-14.5323	-167.772	29.7486	-18.2587	-160.86	32.3195	-46.7118	-162.504	29.655	-71.01	-172.414	0.0309252	-21.997	-155.399	-28.924	-17.5921	-162.58	-20.4299	21.5634	-183.233	-18.2688	-11.6258	-165.818	-39.0791	3.21559	-170.017	-23.5836	32.9934	-195.652	-29.718	-1.36666	-178.79	-43.6961	14.9018	-183.464	-25.1272	42.7931	-211.224	11.0204	30.7599	-211.016	12.1388	60.8123	-182.025	30.7117	46.8505	
39	0.325	-148.473	4.81099	51.2098	-130.903	-10.4681	25.5212	-130.498	-27.3129	-5.67711	-151.021	-43.5232	-20.0218	-165.043	24.8934	-24.891	-159.956	26.9439	-45.6667	-157.41	25.3586	-74.2743	-171.467	-9.63156	-26.2524	-152.228	-34.4759	-18.2937	-157.252	-29.3456	16.8146	-180.09	-22.0111	-13.4412	-163.687	-43.7533	2.08664	-169.842	-27.1088	32.3815	-191.579	-36.6862	-4.07661	-174.415	-47.356	13.7218	-181.457	-28.8123	37.9551	-206.866	9.7718	28.1884	-210.434	5.13033	58.5952	-178.485	25.1399	46.9257	
40	0.333333	-139.182	-1.11252	48.3546	-126.574	-17.892	20.3565	-126.279	-34.0275	-7.31882	-145.274	-50.932	-21.8579	-162.867	18.3609	-26.4798	-155.575	19.5346	-50.1561	-155.387	16.5503	-74.2953	-169.263	-13.0166	-29.2343	-150.347	-38.5563	-28.2673	-148.383	-34.8887	11.6252	-179.697	-30.4991	-16.8008	-160.535	-51.0865	-4.46519	-163.672	-32.0952	26.3055	-190.285	-39.6051	-6.52275	-172.318	-55.6664	9.1999	-173.671	-37.2452	34.1421	-206.19	0.187728	23.4033	-206.298	-0.705909	57.3998	-178.068	17.9465	44.0219	
41	0.341667	-136.531	-6.20589	44.5366	-124.975	-25.0561	18.5793	-127.631	-42.516	-14.4846	-150.76	-54.9584	-23.5637	-157.318	14.7312	-26.8194	-152.665	16.4213	-51.7006	-150.918	11.307	-77.3428	-172.238	-9.60557	-37.5922	-153.647	-34.4644	-47.3098	-148.663	-47.8069	-10.3216	-181.321	-32.3931	-23.8069	-159.623	-53.5351	-16.8495	-159.03	-40.6107	14.5167	-190.766	-47.4219	-12.5291	-169.928	-60.4687	1.31196	-173.176	-44.4649	29.826	-201.052	-3.25396	21.933	-200.038	-4.47019	53.7049	-171.884	13.1718	41.7691	
42	0.35	-135.568	-18.1302	34.2603	-122.529	-37.3004	6.2709	-137.481	-52.0583	-20.9379	-157.638	-62.1276	-27.7528	-149.797	10.9456	-32.5556	-144.998	10.1033	-62.1858	-140.722	5.64428	-88.6761	-176.284	0.476554	-43.5842	-168.002	-18.1972	-68.1268	-148.599	-50.016	-49.5241	-183.72	-30.8209	-32.6214	-169.134	-58.1126	-31.3197	-160.303	-50.1958	-0.545672	-193.404	-48.121	-19.8622	-172.345	-64.7486	-10.9481	-167.734	-53.1716	16.9912	-196.404	-4.96228	19.3366	-196.588	-8.80634	49.4532	-166.796	6.49345	35.6226	
43	0.358333	-130.145	-26.7805	24.9418	-128.116	-46.9381	-5.35543	-140.448	-60.8785	-29.6025	-170.032	-66.6938	-37.7951	-148.279	6.44056	-43.608	-137.951	8.59288	-66.8058	-136.743	5.40663	-92.0367	-176.936	7.82477	-41.8268	-173.452	6.12697	-78.3101	-167.025	-24.2947	-95.5032	-184.742	-24.6235	-44.2399	-176.554	-50.9562	-50.7615	-165.814	-56.0608	-16.5351	-192.96	-42.9829	-29.5377	-178.163	-64.7671	-23.1508	-167.902	-60.1475	3.53318	-189.379	-2.59849	10.7779	-192.708	-9.15681	43.5716	-156.98	3.03959	28.7572	
44	0.366667	-130.419	-30.853	15.82	-127.239	-54.0798	-18.5287	-147.953	-64.7282	-45.7646	-174.795	-64.0081	-43.4943	-141.14	5.35352	-51.0399	-135.934	7.24504	-75.9311	-134.46	5.10256	-104.148	-170.022	9.86523	-49.3288	-174.772	14.063	-79.4483	-174.243	4.59431	-114.479	-186.356	-20.2873	-52.9135	-180.853	-45.8436	-62.958	-167.838	-58.3677	-31.2741	-195.714	-36.9488	-34.3574	-179.904	-63.6974	-30.9437	-165.721	-57.678	-4.67649	-184.571	-2.02507	5.54292	-181.051	-6.73957	34.8229	-149.924	3.6577	16.2457	
45	0.375	-129.385	-33.6761	2.92139	-132.554	-57.3923	-29.2285	-152.584	-68.3759	-47.4374	-177.351	-70.1642	-50.2977	-141.709	2.50156	-62.5881	-135.464	2.25284	-89.4098	-134.324	0.25939	-114.455	-172.09	6.67228	-63.8068	-178.826	9.0043	-92.871	-179.482	9.23139	-121.305	-184.743	-20.1368	-59.5708	-182.86	-47.8993	-71.2886	-168.639	-62.4347	-39.636	-196.879	-42.5241	-44.4757	-184.622	-65.9559	-38.073	-169.585	-63.8716	-13.8295	-187.89	-3.21652	-2.46394	-180.187	-5.43371	28.315	-150.33	0.697612	8.04955	
46	0.383333	-131.45	-38.5539	-5.80721	-133.779	-69.082	-30.6066	-156.24	-82.1303	-48.0157	-185.132	-79.4565	-44.7612	-146.602	-13.6471	-71.9987	-143.196	-17.0902	-96.6949	-144.09	-23.7404	-123.043	-175.504	-10.1463	-74.664	-180.829	-12.357	-104.297	-185.539	-17.288	-130.561	-195.422	-37.4535	-63.1722	-186.703	-66.9531	-72.2453	-175.382	-76.8753	-40.8885	-201.52	-56.8431	-46.6404	-187.786	-76.1722	-40.6078	-173.186	-70.2803	-15.0688	-188.178	-9.17345	-14.415	-184.925	-9.61749	18.9813	-153.114	-4.89214	-3.68085	
